<svg xmlns="http://www.w3.org/2000/svg" viewBox="0 0 200 200" width="200" height="200" role="img" aria-label="Un gat taronja">
  <rect width="200" height="200" rx="24" fill="#fde68a"/>
  <path d="M52 78 60 30l34 32h12l34-32 8 48z" fill="#ea580c"/>
  <ellipse cx="100" cy="112" rx="58" ry="52" fill="#f97316"/>
  <path d="M63 46l4 26 16-12zM137 46l-4 26-16-12z" fill="#fdba74"/>
  <ellipse cx="78" cy="104" rx="9" ry="12" fill="#1c1917"/>
  <ellipse cx="122" cy="104" rx="9" ry="12" fill="#1c1917"/>
  <circle cx="81" cy="99" r="3" fill="#fff"/>
  <circle cx="125" cy="99" r="3" fill="#fff"/>
  <path d="M93 124h14l-7 8z" fill="#be185d"/>
  <path d="M100 132q-8 10-18 4M100 132q8 10 18 4" fill="none" stroke="#1c1917" stroke-width="3" stroke-linecap="round"/>
  <path d="M60 126 30 120M60 134 32 140M140 126l30-6M140 134l28 6" stroke="#1c1917" stroke-width="2.5" stroke-linecap="round"/>
</svg>
